<svg width="137" height="24" viewBox="0 0 137 24" fill="none" xmlns="http://www.w3.org/2000/svg">
<path d="M4.88672 4.9375L10.4648 18.8594L16.043 4.9375H18.9609V22H16.7109V15.3555L16.9219 8.18359L11.3203 22H9.59766L4.00781 8.21875L4.23047 15.3555V22H1.98047V4.9375H4.88672ZM22.0195 15.543C22.0195 14.3008 22.2617 13.1836 22.7461 12.1914C23.2383 11.1992 23.918 10.4336 24.7852 9.89453C25.6602 9.35547 26.6562 9.08594 27.7734 9.08594C29.5 9.08594 30.8945 9.68359 31.957 10.8789C33.0273 12.0742 33.5625 13.6641 33.5625 15.6484V15.8008C33.5625 17.0352 33.3242 18.1445 32.8477 19.1289C32.3789 20.1055 31.7031 20.8672 30.8203 21.4141C29.9453 21.9609 28.9375 22.2344 27.7969 22.2344C26.0781 22.2344 24.6836 21.6367 23.6133 20.4414C22.5508 19.2461 22.0195 17.6641 22.0195 15.6953V15.543ZM24.1992 15.8008C24.1992 17.207 24.5234 18.3359 25.1719 19.1875C25.8281 20.0391 26.7031 20.4648 27.7969 20.4648C28.8984 20.4648 29.7734 20.0352 30.4219 19.1758C31.0703 18.3086 31.3945 17.0977 31.3945 15.543C31.3945 14.1523 31.0625 13.0273 30.3984 12.168C29.7422 11.3008 28.8672 10.8672 27.7734 10.8672C26.7031 10.8672 25.8398 11.293 25.1836 12.1445C24.5273 12.9961 24.1992 14.2148 24.1992 15.8008ZM40.2773 19.0586L43.418 9.32031H45.6328L41.0859 22H39.4336L34.8398 9.32031H37.0547L40.2773 19.0586ZM50.0742 22H47.9062V9.32031H50.0742V22ZM47.7305 5.95703C47.7305 5.60547 47.8359 5.30859 48.0469 5.06641C48.2656 4.82422 48.5859 4.70312 49.0078 4.70312C49.4297 4.70312 49.75 4.82422 49.9688 5.06641C50.1875 5.30859 50.2969 5.60547 50.2969 5.95703C50.2969 6.30859 50.1875 6.60156 49.9688 6.83594C49.75 7.07031 49.4297 7.1875 49.0078 7.1875C48.5859 7.1875 48.2656 7.07031 48.0469 6.83594C47.8359 6.60156 47.7305 6.30859 47.7305 5.95703ZM58.8164 22.2344C57.0977 22.2344 55.6992 21.6719 54.6211 20.5469C53.543 19.4141 53.0039 17.9023 53.0039 16.0117V15.6133C53.0039 14.3555 53.2422 13.2344 53.7188 12.25C54.2031 11.2578 54.875 10.4844 55.7344 9.92969C56.6016 9.36719 57.5391 9.08594 58.5469 9.08594C60.1953 9.08594 61.4766 9.62891 62.3906 10.7148C63.3047 11.8008 63.7617 13.3555 63.7617 15.3789V16.2812H55.1719C55.2031 17.5312 55.5664 18.543 56.2617 19.3164C56.9648 20.082 57.8555 20.4648 58.9336 20.4648C59.6992 20.4648 60.3477 20.3086 60.8789 19.9961C61.4102 19.6836 61.875 19.2695 62.2734 18.7539L63.5977 19.7852C62.5352 21.418 60.9414 22.2344 58.8164 22.2344ZM58.5469 10.8672C57.6719 10.8672 56.9375 11.1875 56.3438 11.8281C55.75 12.4609 55.3828 13.3516 55.2422 14.5H61.5938V14.3359C61.5312 13.2344 61.2344 12.3828 60.7031 11.7812C60.1719 11.1719 59.4531 10.8672 58.5469 10.8672Z" fill="url(#paint0_linear)"/>
<path d="M91.9805 22V4.9375H97.5586C99.4102 4.9375 100.801 5.32031 101.73 6.08594C102.668 6.85156 103.137 7.98438 103.137 9.48438C103.137 10.2812 102.91 10.9883 102.457 11.6055C102.004 12.2148 101.387 12.6875 100.605 13.0234C101.527 13.2812 102.254 13.7734 102.785 14.5C103.324 15.2188 103.594 16.0781 103.594 17.0781C103.594 18.6094 103.098 19.8125 102.105 20.6875C101.113 21.5625 99.7109 22 97.8984 22H91.9805ZM94.2305 14.0195V20.1602H97.9453C98.9922 20.1602 99.8164 19.8906 100.418 19.3516C101.027 18.8047 101.332 18.0547 101.332 17.1016C101.332 15.0469 100.215 14.0195 97.9805 14.0195H94.2305ZM94.2305 12.2148H97.6289C98.6133 12.2148 99.3984 11.9688 99.9844 11.4766C100.578 10.9844 100.875 10.3164 100.875 9.47266C100.875 8.53516 100.602 7.85547 100.055 7.43359C99.5078 7.00391 98.6758 6.78906 97.5586 6.78906H94.2305V12.2148ZM106.02 15.543C106.02 14.3008 106.262 13.1836 106.746 12.1914C107.238 11.1992 107.918 10.4336 108.785 9.89453C109.66 9.35547 110.656 9.08594 111.773 9.08594C113.5 9.08594 114.895 9.68359 115.957 10.8789C117.027 12.0742 117.562 13.6641 117.562 15.6484V15.8008C117.562 17.0352 117.324 18.1445 116.848 19.1289C116.379 20.1055 115.703 20.8672 114.82 21.4141C113.945 21.9609 112.938 22.2344 111.797 22.2344C110.078 22.2344 108.684 21.6367 107.613 20.4414C106.551 19.2461 106.02 17.6641 106.02 15.6953V15.543ZM108.199 15.8008C108.199 17.207 108.523 18.3359 109.172 19.1875C109.828 20.0391 110.703 20.4648 111.797 20.4648C112.898 20.4648 113.773 20.0352 114.422 19.1758C115.07 18.3086 115.395 17.0977 115.395 15.543C115.395 14.1523 115.062 13.0273 114.398 12.168C113.742 11.3008 112.867 10.8672 111.773 10.8672C110.703 10.8672 109.84 11.293 109.184 12.1445C108.527 12.9961 108.199 14.2148 108.199 15.8008ZM124.277 13.9492L127.09 9.32031H129.621L125.473 15.5898L129.75 22H127.242L124.312 17.2539L121.383 22H118.863L123.141 15.5898L118.992 9.32031H121.5L124.277 13.9492Z" fill="url(#paint1_linear)"/>
<g clip-path="url(#clip0)">
<path fill-rule="evenodd" clip-rule="evenodd" d="M78.5 5C83.4673 5 87.5 9.03275 87.5 14C87.5 18.9673 83.4673 23 78.5 23C73.5327 23 69.5 18.9673 69.5 14C69.5 9.03275 73.5327 5 78.5 5ZM78.5 5.75C83.0533 5.75 86.75 9.44675 86.75 14C86.75 18.5533 83.0533 22.25 78.5 22.25C73.9467 22.25 70.25 18.5533 70.25 14C70.25 9.44675 73.9467 5.75 78.5 5.75ZM78.875 18.5H78.125V11.75H78.875V18.5ZM78.5 9.5C78.8495 9.5 79.1338 9.7835 79.1338 10.1337C79.1338 10.4832 78.8495 10.7668 78.5 10.7668C78.1505 10.7668 77.8662 10.4832 77.8662 10.1337C77.8662 9.7835 78.1505 9.5 78.5 9.5Z" fill="url(#paint2_linear)"/>
</g>
<defs>
<linearGradient id="paint0_linear" x1="35" y1="0" x2="35" y2="24" gradientUnits="userSpaceOnUse">
<stop stop-color="#4937E3"/>
<stop offset="1" stop-color="#D06D6D" stop-opacity="0"/>
</linearGradient>
<linearGradient id="paint1_linear" x1="113.5" y1="0" x2="113.5" y2="24" gradientUnits="userSpaceOnUse">
<stop stop-color="#4937E3"/>
<stop offset="1" stop-color="#D06D6D" stop-opacity="0"/>
</linearGradient>
<linearGradient id="paint2_linear" x1="78.5" y1="5" x2="78.5" y2="23" gradientUnits="userSpaceOnUse">
<stop stop-color="#4937E3"/>
<stop offset="1" stop-color="#D06D6D" stop-opacity="0"/>
</linearGradient>
<clipPath id="clip0">
<rect width="18" height="18" fill="white" transform="translate(69.5 5)"/>
</clipPath>
</defs>
</svg>
